<svg width="1277" height="244" viewBox="0 0 1277 244" fill="none" xmlns="http://www.w3.org/2000/svg">
<path d="M161.5 78.6593C161.5 92.846 159.346 104.626 155.04 113.999C150.733 123.373 144.02 131.859 134.9 139.459L166.44 239.779H96.1398L72.5798 154.659H63.8398V239.779H-0.000213519V3.79928H88.1598C113.493 3.79928 131.986 9.75262 143.64 21.6593C155.546 33.566 161.5 52.566 161.5 78.6593ZM73.7198 114.759C80.3065 114.759 84.9931 112.859 87.7798 109.059C90.5665 105.259 91.9598 98.4193 91.9598 88.5393C91.9598 78.406 90.5665 71.4393 87.7798 67.6393C84.9931 63.586 80.4331 61.5593 74.0998 61.5593H63.8398V114.759H73.7198ZM315.453 239.779H187.773V3.79928H319.253L315.453 61.9393H252.753V97.2793H307.093V147.439H252.753V186.579H319.253L315.453 239.779ZM569.786 239.779H510.126V116.659H506.706L484.286 239.779H423.106L401.826 116.659H398.026V239.779H339.126L347.106 3.79928H432.606L453.886 131.479H456.926L477.446 3.79928H561.806L569.786 239.779ZM770.281 239.779H706.821L699.601 202.539H654.761L647.541 239.779H587.121L630.441 3.79928H726.961L770.281 239.779ZM692.381 158.079L679.081 73.7193H676.421L663.121 158.079H692.381ZM927.238 61.1793H883.158V239.779H818.178V61.1793H771.438L775.238 3.79928H931.038L927.238 61.1793ZM1004.44 124.259C1004.44 146.553 1006.59 162.513 1010.9 172.139C1015.46 181.513 1022.8 186.199 1032.94 186.199C1043.07 186.199 1057.38 183.793 1075.88 178.979L1085.76 232.559C1065.74 239.906 1045.6 243.579 1025.34 243.579C994.938 243.579 972.771 233.573 958.838 213.559C945.158 193.293 938.318 163.273 938.318 123.499C938.318 83.4726 945.538 52.946 959.978 31.9193C974.418 10.6393 997.978 -0.00071907 1030.66 -0.00071907C1049.91 -0.00071907 1068.28 4.05261 1085.76 12.1593L1075.5 71.0593C1055.74 64.4726 1041.93 61.1793 1034.08 61.1793C1022.93 61.1793 1015.2 66.1193 1010.9 75.9993C1006.59 85.626 1004.44 101.713 1004.44 124.259ZM1276.2 239.779H1211.6V150.479H1167.14V239.779H1101.78V3.79928H1167.14V96.5193H1211.6V3.79928H1276.2V239.779Z" fill="#DDDDDD"/>
</svg>
